<mxfile host="app.diagrams.net" modified="2021-08-31T13:42:46.957Z" agent="5.0 (Windows)" etag="mLB8e89uC7GpsH-3i0rm" version="15.0.3" type="github">
  <diagram id="C5RBs43oDa-KdzZeNtuy" name="Page-1">
    <mxGraphModel dx="1973" dy="779" grid="1" gridSize="10" guides="1" tooltips="1" connect="1" arrows="1" fold="1" page="1" pageScale="1" pageWidth="827" pageHeight="1169" math="0" shadow="0">
      <root>
        <mxCell id="WIyWlLk6GJQsqaUBKTNV-0" />
        <mxCell id="WIyWlLk6GJQsqaUBKTNV-1" parent="WIyWlLk6GJQsqaUBKTNV-0" />
        <mxCell id="CT8sEvGk3rI5cgj4gR0R-0" value="Main" style="swimlane;fillColor=#e1d5e7;strokeColor=#9673a6;" vertex="1" parent="WIyWlLk6GJQsqaUBKTNV-1">
          <mxGeometry x="70" y="10" width="200" height="220" as="geometry" />
        </mxCell>
        <mxCell id="CT8sEvGk3rI5cgj4gR0R-1" value="Klik ready And Player Klik" style="rounded=0;whiteSpace=wrap;html=1;" vertex="1" parent="CT8sEvGk3rI5cgj4gR0R-0">
          <mxGeometry x="10" y="40" width="180" height="60" as="geometry" />
        </mxCell>
        <mxCell id="CT8sEvGk3rI5cgj4gR0R-2" value="Splash Mode On" style="rounded=0;whiteSpace=wrap;html=1;" vertex="1" parent="CT8sEvGk3rI5cgj4gR0R-0">
          <mxGeometry x="40" y="130" width="120" height="60" as="geometry" />
        </mxCell>
        <mxCell id="CT8sEvGk3rI5cgj4gR0R-3" value="&#xa;Klik ready And Player Klik&#xa;" style="swimlane;startSize=30;" vertex="1" parent="WIyWlLk6GJQsqaUBKTNV-1">
          <mxGeometry x="360" y="100" width="200" height="120" as="geometry" />
        </mxCell>
        <mxCell id="CT8sEvGk3rI5cgj4gR0R-6" value="&lt;div&gt;NextProcess&lt;/div&gt;" style="rounded=0;whiteSpace=wrap;html=1;" vertex="1" parent="CT8sEvGk3rI5cgj4gR0R-3">
          <mxGeometry x="40" y="40" width="120" height="60" as="geometry" />
        </mxCell>
        <mxCell id="CT8sEvGk3rI5cgj4gR0R-4" style="edgeStyle=orthogonalEdgeStyle;rounded=0;orthogonalLoop=1;jettySize=auto;html=1;exitX=1;exitY=0.5;exitDx=0;exitDy=0;entryX=0.5;entryY=0;entryDx=0;entryDy=0;" edge="1" parent="WIyWlLk6GJQsqaUBKTNV-1" source="CT8sEvGk3rI5cgj4gR0R-1" target="CT8sEvGk3rI5cgj4gR0R-3">
          <mxGeometry relative="1" as="geometry" />
        </mxCell>
        <mxCell id="CT8sEvGk3rI5cgj4gR0R-7" value="NextProcess" style="swimlane;" vertex="1" parent="WIyWlLk6GJQsqaUBKTNV-1">
          <mxGeometry x="360" y="330" width="200" height="490" as="geometry" />
        </mxCell>
        <mxCell id="CT8sEvGk3rI5cgj4gR0R-19" style="edgeStyle=orthogonalEdgeStyle;rounded=0;orthogonalLoop=1;jettySize=auto;html=1;exitX=0.5;exitY=1;exitDx=0;exitDy=0;entryX=0.5;entryY=0;entryDx=0;entryDy=0;" edge="1" parent="CT8sEvGk3rI5cgj4gR0R-7" source="CT8sEvGk3rI5cgj4gR0R-8" target="CT8sEvGk3rI5cgj4gR0R-18">
          <mxGeometry relative="1" as="geometry" />
        </mxCell>
        <mxCell id="CT8sEvGk3rI5cgj4gR0R-8" value="checkPrevJumpChat" style="rounded=0;whiteSpace=wrap;html=1;" vertex="1" parent="CT8sEvGk3rI5cgj4gR0R-7">
          <mxGeometry x="40" y="40" width="130" height="60" as="geometry" />
        </mxCell>
        <mxCell id="CT8sEvGk3rI5cgj4gR0R-30" style="edgeStyle=orthogonalEdgeStyle;rounded=0;orthogonalLoop=1;jettySize=auto;html=1;exitX=0.5;exitY=1;exitDx=0;exitDy=0;entryX=0.5;entryY=0;entryDx=0;entryDy=0;" edge="1" parent="CT8sEvGk3rI5cgj4gR0R-7" source="CT8sEvGk3rI5cgj4gR0R-18" target="CT8sEvGk3rI5cgj4gR0R-29">
          <mxGeometry relative="1" as="geometry" />
        </mxCell>
        <mxCell id="CT8sEvGk3rI5cgj4gR0R-18" value="" style="ellipse;whiteSpace=wrap;html=1;aspect=fixed;" vertex="1" parent="CT8sEvGk3rI5cgj4gR0R-7">
          <mxGeometry x="85" y="120" width="30" height="30" as="geometry" />
        </mxCell>
        <mxCell id="CT8sEvGk3rI5cgj4gR0R-32" style="edgeStyle=orthogonalEdgeStyle;rounded=0;orthogonalLoop=1;jettySize=auto;html=1;exitX=0.5;exitY=1;exitDx=0;exitDy=0;entryX=0.5;entryY=0;entryDx=0;entryDy=0;" edge="1" parent="CT8sEvGk3rI5cgj4gR0R-7" source="CT8sEvGk3rI5cgj4gR0R-29" target="CT8sEvGk3rI5cgj4gR0R-31">
          <mxGeometry relative="1" as="geometry" />
        </mxCell>
        <mxCell id="CT8sEvGk3rI5cgj4gR0R-29" value="Calculate Next Chat Point" style="rounded=0;whiteSpace=wrap;html=1;" vertex="1" parent="CT8sEvGk3rI5cgj4gR0R-7">
          <mxGeometry x="35" y="170" width="130" height="60" as="geometry" />
        </mxCell>
        <mxCell id="CT8sEvGk3rI5cgj4gR0R-35" value="Y" style="edgeStyle=orthogonalEdgeStyle;rounded=0;orthogonalLoop=1;jettySize=auto;html=1;exitX=0.5;exitY=1;exitDx=0;exitDy=0;entryX=0.5;entryY=0;entryDx=0;entryDy=0;" edge="1" parent="CT8sEvGk3rI5cgj4gR0R-7" source="CT8sEvGk3rI5cgj4gR0R-31" target="CT8sEvGk3rI5cgj4gR0R-34">
          <mxGeometry relative="1" as="geometry" />
        </mxCell>
        <mxCell id="CT8sEvGk3rI5cgj4gR0R-31" value="if Next Chat Point Valid" style="rhombus;whiteSpace=wrap;html=1;" vertex="1" parent="CT8sEvGk3rI5cgj4gR0R-7">
          <mxGeometry x="60" y="260" width="80" height="80" as="geometry" />
        </mxCell>
        <mxCell id="CT8sEvGk3rI5cgj4gR0R-34" value="Generate Output Chat" style="rounded=0;whiteSpace=wrap;html=1;" vertex="1" parent="CT8sEvGk3rI5cgj4gR0R-7">
          <mxGeometry x="35" y="380" width="130" height="60" as="geometry" />
        </mxCell>
        <mxCell id="CT8sEvGk3rI5cgj4gR0R-10" style="edgeStyle=orthogonalEdgeStyle;rounded=0;orthogonalLoop=1;jettySize=auto;html=1;exitX=0.5;exitY=1;exitDx=0;exitDy=0;" edge="1" parent="WIyWlLk6GJQsqaUBKTNV-1" source="CT8sEvGk3rI5cgj4gR0R-6" target="CT8sEvGk3rI5cgj4gR0R-7">
          <mxGeometry relative="1" as="geometry" />
        </mxCell>
        <mxCell id="CT8sEvGk3rI5cgj4gR0R-14" value="Y" style="edgeStyle=orthogonalEdgeStyle;rounded=0;orthogonalLoop=1;jettySize=auto;html=1;exitX=1;exitY=0.5;exitDx=0;exitDy=0;entryX=0;entryY=0.5;entryDx=0;entryDy=0;" edge="1" parent="WIyWlLk6GJQsqaUBKTNV-1" source="CT8sEvGk3rI5cgj4gR0R-11" target="CT8sEvGk3rI5cgj4gR0R-12">
          <mxGeometry relative="1" as="geometry" />
        </mxCell>
        <mxCell id="CT8sEvGk3rI5cgj4gR0R-17" value="N" style="edgeStyle=orthogonalEdgeStyle;rounded=0;orthogonalLoop=1;jettySize=auto;html=1;exitX=0.5;exitY=1;exitDx=0;exitDy=0;entryX=0.5;entryY=0;entryDx=0;entryDy=0;" edge="1" parent="WIyWlLk6GJQsqaUBKTNV-1" source="CT8sEvGk3rI5cgj4gR0R-11" target="CT8sEvGk3rI5cgj4gR0R-15">
          <mxGeometry relative="1" as="geometry" />
        </mxCell>
        <mxCell id="CT8sEvGk3rI5cgj4gR0R-11" value="&lt;div&gt;if Jump &lt;br&gt;&lt;/div&gt;&lt;div&gt;point -1&lt;/div&gt;" style="rhombus;whiteSpace=wrap;html=1;" vertex="1" parent="WIyWlLk6GJQsqaUBKTNV-1">
          <mxGeometry x="640" y="80" width="80" height="80" as="geometry" />
        </mxCell>
        <mxCell id="CT8sEvGk3rI5cgj4gR0R-12" value="exitChat" style="rounded=0;whiteSpace=wrap;html=1;" vertex="1" parent="WIyWlLk6GJQsqaUBKTNV-1">
          <mxGeometry x="760" y="90" width="120" height="60" as="geometry" />
        </mxCell>
        <mxCell id="CT8sEvGk3rI5cgj4gR0R-13" style="edgeStyle=orthogonalEdgeStyle;rounded=0;orthogonalLoop=1;jettySize=auto;html=1;exitX=1;exitY=0.5;exitDx=0;exitDy=0;entryX=0;entryY=0.5;entryDx=0;entryDy=0;" edge="1" parent="WIyWlLk6GJQsqaUBKTNV-1" source="CT8sEvGk3rI5cgj4gR0R-8" target="CT8sEvGk3rI5cgj4gR0R-11">
          <mxGeometry relative="1" as="geometry">
            <Array as="points">
              <mxPoint x="600" y="400" />
              <mxPoint x="600" y="120" />
            </Array>
          </mxGeometry>
        </mxCell>
        <mxCell id="CT8sEvGk3rI5cgj4gR0R-21" value="Y" style="edgeStyle=orthogonalEdgeStyle;rounded=0;orthogonalLoop=1;jettySize=auto;html=1;exitX=1;exitY=0.5;exitDx=0;exitDy=0;entryX=0;entryY=0.5;entryDx=0;entryDy=0;" edge="1" parent="WIyWlLk6GJQsqaUBKTNV-1" source="CT8sEvGk3rI5cgj4gR0R-15" target="CT8sEvGk3rI5cgj4gR0R-20">
          <mxGeometry relative="1" as="geometry" />
        </mxCell>
        <mxCell id="CT8sEvGk3rI5cgj4gR0R-23" style="edgeStyle=orthogonalEdgeStyle;rounded=0;orthogonalLoop=1;jettySize=auto;html=1;exitX=0.5;exitY=1;exitDx=0;exitDy=0;entryX=0.5;entryY=0;entryDx=0;entryDy=0;" edge="1" parent="WIyWlLk6GJQsqaUBKTNV-1" source="CT8sEvGk3rI5cgj4gR0R-15" target="CT8sEvGk3rI5cgj4gR0R-22">
          <mxGeometry relative="1" as="geometry" />
        </mxCell>
        <mxCell id="CT8sEvGk3rI5cgj4gR0R-15" value="&lt;div&gt;if Jump &lt;br&gt;&lt;/div&gt;&lt;div&gt;point &amp;gt;= 0 &lt;br&gt;&lt;/div&gt;" style="rhombus;whiteSpace=wrap;html=1;" vertex="1" parent="WIyWlLk6GJQsqaUBKTNV-1">
          <mxGeometry x="640" y="210" width="80" height="80" as="geometry" />
        </mxCell>
        <mxCell id="CT8sEvGk3rI5cgj4gR0R-27" style="edgeStyle=orthogonalEdgeStyle;rounded=0;orthogonalLoop=1;jettySize=auto;html=1;exitX=0.5;exitY=1;exitDx=0;exitDy=0;entryX=1;entryY=0.5;entryDx=0;entryDy=0;" edge="1" parent="WIyWlLk6GJQsqaUBKTNV-1" source="CT8sEvGk3rI5cgj4gR0R-20" target="CT8sEvGk3rI5cgj4gR0R-18">
          <mxGeometry relative="1" as="geometry" />
        </mxCell>
        <mxCell id="CT8sEvGk3rI5cgj4gR0R-20" value="editChatPoint" style="rounded=0;whiteSpace=wrap;html=1;" vertex="1" parent="WIyWlLk6GJQsqaUBKTNV-1">
          <mxGeometry x="760" y="220" width="120" height="60" as="geometry" />
        </mxCell>
        <mxCell id="CT8sEvGk3rI5cgj4gR0R-28" style="edgeStyle=orthogonalEdgeStyle;rounded=0;orthogonalLoop=1;jettySize=auto;html=1;exitX=0.5;exitY=1;exitDx=0;exitDy=0;" edge="1" parent="WIyWlLk6GJQsqaUBKTNV-1" source="CT8sEvGk3rI5cgj4gR0R-22">
          <mxGeometry relative="1" as="geometry">
            <mxPoint x="680" y="460" as="targetPoint" />
          </mxGeometry>
        </mxCell>
        <mxCell id="CT8sEvGk3rI5cgj4gR0R-22" value="&lt;div&gt;if Jump &lt;br&gt;&lt;/div&gt;&lt;div&gt;point == &lt;br&gt;&lt;/div&gt;&lt;div&gt;Null &lt;br&gt;&lt;/div&gt;" style="rhombus;whiteSpace=wrap;html=1;" vertex="1" parent="WIyWlLk6GJQsqaUBKTNV-1">
          <mxGeometry x="640" y="310" width="80" height="80" as="geometry" />
        </mxCell>
        <mxCell id="CT8sEvGk3rI5cgj4gR0R-36" value="Do Nothing" style="rounded=0;whiteSpace=wrap;html=1;" vertex="1" parent="WIyWlLk6GJQsqaUBKTNV-1">
          <mxGeometry x="600" y="600" width="130" height="60" as="geometry" />
        </mxCell>
        <mxCell id="CT8sEvGk3rI5cgj4gR0R-37" value="&lt;div&gt;N&lt;/div&gt;" style="edgeStyle=orthogonalEdgeStyle;rounded=0;orthogonalLoop=1;jettySize=auto;html=1;exitX=1;exitY=0.5;exitDx=0;exitDy=0;entryX=0;entryY=0.5;entryDx=0;entryDy=0;" edge="1" parent="WIyWlLk6GJQsqaUBKTNV-1" source="CT8sEvGk3rI5cgj4gR0R-31" target="CT8sEvGk3rI5cgj4gR0R-36">
          <mxGeometry relative="1" as="geometry" />
        </mxCell>
        <mxCell id="CT8sEvGk3rI5cgj4gR0R-38" value="Generate Output Chat" style="swimlane;" vertex="1" parent="WIyWlLk6GJQsqaUBKTNV-1">
          <mxGeometry x="30" y="385" width="250" height="475" as="geometry" />
        </mxCell>
        <mxCell id="CT8sEvGk3rI5cgj4gR0R-40" value="if ChatType ==&amp;nbsp; Normal&lt;br&gt;&lt;br&gt;&lt;div&gt;+ show text chat and Pic Avatar&lt;/div&gt;&lt;div&gt;+ Player Enable Click Chat Box&lt;br&gt;&lt;/div&gt;" style="shape=hexagon;perimeter=hexagonPerimeter2;whiteSpace=wrap;html=1;fixedSize=1;" vertex="1" parent="CT8sEvGk3rI5cgj4gR0R-38">
          <mxGeometry x="20" y="40" width="190" height="120" as="geometry" />
        </mxCell>
        <mxCell id="CT8sEvGk3rI5cgj4gR0R-41" value="if ChatType ==&amp;nbsp; Question&lt;br&gt;&lt;br&gt;&lt;div&gt;+ show text chat and Pic Avatar&lt;/div&gt;&lt;div&gt;- Player Disable Click Chat Box&lt;/div&gt;&lt;div&gt;+ Show Option Answer&lt;br&gt;+ Put Jump point for each Answer&lt;br&gt;&lt;/div&gt;" style="shape=hexagon;perimeter=hexagonPerimeter2;whiteSpace=wrap;html=1;fixedSize=1;" vertex="1" parent="CT8sEvGk3rI5cgj4gR0R-38">
          <mxGeometry x="5" y="190" width="220" height="120" as="geometry" />
        </mxCell>
        <mxCell id="CT8sEvGk3rI5cgj4gR0R-51" value="if ChatType ==&amp;nbsp; SplashScreen&lt;br&gt;&lt;br&gt;&lt;div&gt;+ SplashScreenOn&lt;/div&gt;" style="shape=hexagon;perimeter=hexagonPerimeter2;whiteSpace=wrap;html=1;fixedSize=1;" vertex="1" parent="CT8sEvGk3rI5cgj4gR0R-38">
          <mxGeometry x="20" y="330" width="190" height="120" as="geometry" />
        </mxCell>
        <mxCell id="CT8sEvGk3rI5cgj4gR0R-39" style="edgeStyle=orthogonalEdgeStyle;rounded=0;orthogonalLoop=1;jettySize=auto;html=1;exitX=0;exitY=0.5;exitDx=0;exitDy=0;entryX=0.5;entryY=0;entryDx=0;entryDy=0;" edge="1" parent="WIyWlLk6GJQsqaUBKTNV-1" source="CT8sEvGk3rI5cgj4gR0R-34" target="CT8sEvGk3rI5cgj4gR0R-38">
          <mxGeometry relative="1" as="geometry">
            <Array as="points">
              <mxPoint x="320" y="740" />
              <mxPoint x="320" y="360" />
              <mxPoint x="155" y="360" />
            </Array>
          </mxGeometry>
        </mxCell>
        <mxCell id="CT8sEvGk3rI5cgj4gR0R-42" value="if Answer Question Click" style="swimlane;" vertex="1" parent="WIyWlLk6GJQsqaUBKTNV-1">
          <mxGeometry x="-330" y="390" width="230" height="330" as="geometry" />
        </mxCell>
        <mxCell id="CT8sEvGk3rI5cgj4gR0R-49" style="edgeStyle=orthogonalEdgeStyle;rounded=0;orthogonalLoop=1;jettySize=auto;html=1;exitX=0.5;exitY=1;exitDx=0;exitDy=0;entryX=0.5;entryY=0;entryDx=0;entryDy=0;" edge="1" parent="CT8sEvGk3rI5cgj4gR0R-42" source="CT8sEvGk3rI5cgj4gR0R-44" target="CT8sEvGk3rI5cgj4gR0R-48">
          <mxGeometry relative="1" as="geometry" />
        </mxCell>
        <mxCell id="CT8sEvGk3rI5cgj4gR0R-44" value="JumpPoint = JumpPoint Answer" style="rounded=0;whiteSpace=wrap;html=1;" vertex="1" parent="CT8sEvGk3rI5cgj4gR0R-42">
          <mxGeometry x="20" y="150" width="190" height="60" as="geometry" />
        </mxCell>
        <mxCell id="CT8sEvGk3rI5cgj4gR0R-47" style="edgeStyle=orthogonalEdgeStyle;rounded=0;orthogonalLoop=1;jettySize=auto;html=1;exitX=0.5;exitY=1;exitDx=0;exitDy=0;entryX=0.5;entryY=0;entryDx=0;entryDy=0;" edge="1" parent="CT8sEvGk3rI5cgj4gR0R-42" source="CT8sEvGk3rI5cgj4gR0R-46" target="CT8sEvGk3rI5cgj4gR0R-44">
          <mxGeometry relative="1" as="geometry" />
        </mxCell>
        <mxCell id="CT8sEvGk3rI5cgj4gR0R-46" value="- Hide All Answer Box&lt;br&gt;(karena udah di klik sama player juga)" style="rounded=0;whiteSpace=wrap;html=1;" vertex="1" parent="CT8sEvGk3rI5cgj4gR0R-42">
          <mxGeometry x="20" y="45" width="190" height="65" as="geometry" />
        </mxCell>
        <mxCell id="CT8sEvGk3rI5cgj4gR0R-48" value="&lt;div&gt;EXE: NextProcess&lt;br&gt;&lt;br&gt;(untuk nge trigger Update Jump Point &amp;amp; Process Jump Point,&lt;br&gt;ReUse Func biar manaje simple)&lt;/div&gt;" style="rounded=0;whiteSpace=wrap;html=1;" vertex="1" parent="CT8sEvGk3rI5cgj4gR0R-42">
          <mxGeometry x="20" y="230" width="190" height="90" as="geometry" />
        </mxCell>
        <mxCell id="CT8sEvGk3rI5cgj4gR0R-45" style="edgeStyle=orthogonalEdgeStyle;rounded=0;orthogonalLoop=1;jettySize=auto;html=1;exitX=0;exitY=0.5;exitDx=0;exitDy=0;entryX=0.5;entryY=0;entryDx=0;entryDy=0;" edge="1" parent="WIyWlLk6GJQsqaUBKTNV-1" source="CT8sEvGk3rI5cgj4gR0R-41" target="CT8sEvGk3rI5cgj4gR0R-42">
          <mxGeometry relative="1" as="geometry" />
        </mxCell>
        <mxCell id="CT8sEvGk3rI5cgj4gR0R-50" style="edgeStyle=orthogonalEdgeStyle;rounded=0;orthogonalLoop=1;jettySize=auto;html=1;exitX=0;exitY=0.5;exitDx=0;exitDy=0;entryX=0;entryY=0.02;entryDx=0;entryDy=0;entryPerimeter=0;strokeColor=#FF0000;" edge="1" parent="WIyWlLk6GJQsqaUBKTNV-1" source="CT8sEvGk3rI5cgj4gR0R-48" target="CT8sEvGk3rI5cgj4gR0R-7">
          <mxGeometry relative="1" as="geometry">
            <Array as="points">
              <mxPoint x="-370" y="665" />
              <mxPoint x="-370" y="340" />
            </Array>
          </mxGeometry>
        </mxCell>
        <mxCell id="CT8sEvGk3rI5cgj4gR0R-53" value="SplashMode ON" style="swimlane;" vertex="1" parent="WIyWlLk6GJQsqaUBKTNV-1">
          <mxGeometry x="-340" y="10" width="270" height="310" as="geometry" />
        </mxCell>
        <mxCell id="CT8sEvGk3rI5cgj4gR0R-55" value="BlackScreen Gerak dari Kanan ke kiri" style="rounded=0;whiteSpace=wrap;html=1;" vertex="1" parent="CT8sEvGk3rI5cgj4gR0R-53">
          <mxGeometry x="20" y="40" width="210" height="60" as="geometry" />
        </mxCell>
        <mxCell id="CT8sEvGk3rI5cgj4gR0R-56" value="Ketika BlackScreen &lt;br&gt;Tepat Nutup FullLayar&lt;br&gt;&lt;br&gt;EXE: NextProcess" style="shape=hexagon;perimeter=hexagonPerimeter2;whiteSpace=wrap;html=1;fixedSize=1;" vertex="1" parent="CT8sEvGk3rI5cgj4gR0R-53">
          <mxGeometry x="30" y="120" width="190" height="70" as="geometry" />
        </mxCell>
        <mxCell id="CT8sEvGk3rI5cgj4gR0R-58" value="Ketika BlackScreen &lt;br&gt;&lt;div&gt;udah Hilang dari layar &lt;br&gt;&lt;/div&gt;&lt;div&gt;karena ke kiri banget&lt;/div&gt;&lt;br&gt;- Hide BlackScreen&lt;br&gt;- Splash Mode Off" style="shape=hexagon;perimeter=hexagonPerimeter2;whiteSpace=wrap;html=1;fixedSize=1;" vertex="1" parent="CT8sEvGk3rI5cgj4gR0R-53">
          <mxGeometry x="30" y="200" width="190" height="100" as="geometry" />
        </mxCell>
        <mxCell id="CT8sEvGk3rI5cgj4gR0R-59" style="edgeStyle=orthogonalEdgeStyle;rounded=0;orthogonalLoop=1;jettySize=auto;html=1;exitX=0;exitY=0.5;exitDx=0;exitDy=0;entryX=1.019;entryY=0.042;entryDx=0;entryDy=0;entryPerimeter=0;strokeColor=#000000;" edge="1" parent="WIyWlLk6GJQsqaUBKTNV-1" source="CT8sEvGk3rI5cgj4gR0R-2" target="CT8sEvGk3rI5cgj4gR0R-53">
          <mxGeometry relative="1" as="geometry" />
        </mxCell>
        <mxCell id="CT8sEvGk3rI5cgj4gR0R-60" style="edgeStyle=orthogonalEdgeStyle;rounded=0;orthogonalLoop=1;jettySize=auto;html=1;exitX=1;exitY=0.5;exitDx=0;exitDy=0;strokeColor=#FF0022;" edge="1" parent="WIyWlLk6GJQsqaUBKTNV-1" source="CT8sEvGk3rI5cgj4gR0R-56">
          <mxGeometry relative="1" as="geometry">
            <mxPoint x="-30" y="340" as="targetPoint" />
          </mxGeometry>
        </mxCell>
        <mxCell id="CT8sEvGk3rI5cgj4gR0R-61" value="Process Jump Point" style="swimlane;startSize=0;fillColor=#d5e8d4;strokeColor=#82b366;fontColor=#3333FF;" vertex="1" parent="WIyWlLk6GJQsqaUBKTNV-1">
          <mxGeometry x="580" y="65" width="330" height="435" as="geometry" />
        </mxCell>
      </root>
    </mxGraphModel>
  </diagram>
</mxfile>
